<mxfile host="app.diagrams.net" agent="Mozilla/5.0 (Windows NT 10.0; Win64; x64) AppleWebKit/537.36 (KHTML, like Gecko) Chrome/132.0.0.0 YaBrowser/25.2.0.0 Safari/537.36" version="26.2.14">
  <diagram name="Page-1" id="bfe91b75-5d2c-26a0-9c1d-138518896778">
    <mxGraphModel dx="1783" dy="995" grid="1" gridSize="10" guides="1" tooltips="1" connect="1" arrows="1" fold="1" page="1" pageScale="1" pageWidth="1100" pageHeight="850" background="none" math="0" shadow="0">
      <root>
        <mxCell id="0" />
        <mxCell id="1" parent="0" />
        <mxCell id="7c3789c024ecab99-53" value="Internet" style="html=1;fillColor=#CCCCCC;strokeColor=#6881B3;gradientColor=none;gradientDirection=north;strokeWidth=2;shape=mxgraph.networks.cloud;fontColor=#6881B3;rounded=0;shadow=0;comic=0;align=center;fontSize=28;" parent="1" vertex="1">
          <mxGeometry x="1780" y="320" width="330" height="140" as="geometry" />
        </mxCell>
        <mxCell id="fQY0wKTE_9jviepJ98bO-26" style="edgeStyle=orthogonalEdgeStyle;rounded=0;orthogonalLoop=1;jettySize=auto;html=1;entryX=0.5;entryY=1;entryDx=0;entryDy=0;" edge="1" parent="1" source="fQY0wKTE_9jviepJ98bO-21" target="fQY0wKTE_9jviepJ98bO-24">
          <mxGeometry relative="1" as="geometry" />
        </mxCell>
        <mxCell id="fQY0wKTE_9jviepJ98bO-80" value="80" style="edgeLabel;html=1;align=center;verticalAlign=middle;resizable=0;points=[];" vertex="1" connectable="0" parent="fQY0wKTE_9jviepJ98bO-26">
          <mxGeometry x="-0.4667" relative="1" as="geometry">
            <mxPoint as="offset" />
          </mxGeometry>
        </mxCell>
        <mxCell id="fQY0wKTE_9jviepJ98bO-15" value="" style="endArrow=classic;html=1;rounded=0;exitX=0.06;exitY=0.5;exitDx=0;exitDy=0;exitPerimeter=0;entryX=1;entryY=0.5;entryDx=0;entryDy=0;" edge="1" parent="1" source="7c3789c024ecab99-53" target="fQY0wKTE_9jviepJ98bO-21">
          <mxGeometry relative="1" as="geometry">
            <mxPoint x="1660" y="430" as="sourcePoint" />
            <mxPoint x="1760" y="430" as="targetPoint" />
          </mxGeometry>
        </mxCell>
        <mxCell id="fQY0wKTE_9jviepJ98bO-17" value="https" style="edgeLabel;html=1;align=center;verticalAlign=middle;resizable=0;points=[];" vertex="1" connectable="0" parent="fQY0wKTE_9jviepJ98bO-15">
          <mxGeometry x="-0.0167" y="2" relative="1" as="geometry">
            <mxPoint y="-2" as="offset" />
          </mxGeometry>
        </mxCell>
        <mxCell id="fQY0wKTE_9jviepJ98bO-27" value="" style="group" vertex="1" connectable="0" parent="1">
          <mxGeometry x="1480" y="150" width="145" height="120" as="geometry" />
        </mxCell>
        <mxCell id="fQY0wKTE_9jviepJ98bO-24" value="Apache&lt;div&gt;sitepvm.ru&lt;/div&gt;&lt;div&gt;&lt;span style=&quot;background-color: transparent; color: light-dark(rgb(0, 0, 0), rgb(255, 255, 255));&quot;&gt;GLPI&lt;/span&gt;&lt;/div&gt;&lt;div&gt;&lt;br&gt;&lt;/div&gt;&lt;div&gt;192.168.103.211&lt;/div&gt;&lt;div&gt;&lt;br&gt;&lt;/div&gt;" style="rounded=0;whiteSpace=wrap;html=1;align=left;" vertex="1" parent="fQY0wKTE_9jviepJ98bO-27">
          <mxGeometry x="10" width="145" height="120" as="geometry" />
        </mxCell>
        <mxCell id="fQY0wKTE_9jviepJ98bO-25" value="" style="fontColor=#0066CC;verticalAlign=top;verticalLabelPosition=bottom;labelPosition=center;align=center;html=1;outlineConnect=0;fillColor=#CCCCCC;strokeColor=#6881B3;gradientColor=none;gradientDirection=north;strokeWidth=2;shape=mxgraph.networks.proxy_server;" vertex="1" parent="fQY0wKTE_9jviepJ98bO-27">
          <mxGeometry x="100" y="10" width="43" height="62.5" as="geometry" />
        </mxCell>
        <mxCell id="fQY0wKTE_9jviepJ98bO-28" value="" style="group" vertex="1" connectable="0" parent="1">
          <mxGeometry x="1490" y="330" width="145" height="120" as="geometry" />
        </mxCell>
        <mxCell id="fQY0wKTE_9jviepJ98bO-21" value="Nginx&lt;div&gt;sitepvm.ru&lt;/div&gt;&lt;div&gt;elk.sitepvm.ru&lt;/div&gt;&lt;div&gt;UFW (DMZ)&lt;/div&gt;&lt;div&gt;22 Only Ansible&lt;/div&gt;&lt;div&gt;192.168.103.210&lt;/div&gt;&lt;div&gt;&lt;br&gt;&lt;/div&gt;" style="rounded=0;whiteSpace=wrap;html=1;align=left;" vertex="1" parent="fQY0wKTE_9jviepJ98bO-28">
          <mxGeometry width="145" height="120" as="geometry" />
        </mxCell>
        <mxCell id="fQY0wKTE_9jviepJ98bO-4" value="" style="fontColor=#0066CC;verticalAlign=top;verticalLabelPosition=bottom;labelPosition=center;align=center;html=1;outlineConnect=0;fillColor=#CCCCCC;strokeColor=#6881B3;gradientColor=none;gradientDirection=north;strokeWidth=2;shape=mxgraph.networks.proxy_server;" vertex="1" parent="fQY0wKTE_9jviepJ98bO-28">
          <mxGeometry x="100" y="8.75" width="45" height="62.5" as="geometry" />
        </mxCell>
        <mxCell id="fQY0wKTE_9jviepJ98bO-29" value="" style="group" vertex="1" connectable="0" parent="1">
          <mxGeometry x="1490" y="530" width="145" height="120" as="geometry" />
        </mxCell>
        <mxCell id="fQY0wKTE_9jviepJ98bO-30" value="&lt;font&gt;Apache&lt;/font&gt;&lt;div&gt;sitepvm.ru&lt;/div&gt;&lt;div&gt;GLPI&lt;/div&gt;&lt;div&gt;&lt;br&gt;&lt;/div&gt;&lt;div&gt;192.168.103.212&lt;/div&gt;&lt;div&gt;&lt;br&gt;&lt;/div&gt;" style="rounded=0;whiteSpace=wrap;html=1;align=left;" vertex="1" parent="fQY0wKTE_9jviepJ98bO-29">
          <mxGeometry width="145" height="120" as="geometry" />
        </mxCell>
        <mxCell id="fQY0wKTE_9jviepJ98bO-31" value="" style="fontColor=#0066CC;verticalAlign=top;verticalLabelPosition=bottom;labelPosition=center;align=center;html=1;outlineConnect=0;fillColor=#CCCCCC;strokeColor=#6881B3;gradientColor=none;gradientDirection=north;strokeWidth=2;shape=mxgraph.networks.proxy_server;" vertex="1" parent="fQY0wKTE_9jviepJ98bO-29">
          <mxGeometry x="100" y="8.75" width="45" height="62.5" as="geometry" />
        </mxCell>
        <mxCell id="fQY0wKTE_9jviepJ98bO-32" value="" style="edgeStyle=orthogonalEdgeStyle;rounded=0;orthogonalLoop=1;jettySize=auto;html=1;entryX=0.5;entryY=0;entryDx=0;entryDy=0;" edge="1" parent="1" source="fQY0wKTE_9jviepJ98bO-21" target="fQY0wKTE_9jviepJ98bO-30">
          <mxGeometry relative="1" as="geometry" />
        </mxCell>
        <mxCell id="fQY0wKTE_9jviepJ98bO-81" value="80" style="edgeLabel;html=1;align=center;verticalAlign=middle;resizable=0;points=[];" vertex="1" connectable="0" parent="fQY0wKTE_9jviepJ98bO-32">
          <mxGeometry x="-0.7" relative="1" as="geometry">
            <mxPoint as="offset" />
          </mxGeometry>
        </mxCell>
        <mxCell id="fQY0wKTE_9jviepJ98bO-37" value="" style="group" vertex="1" connectable="0" parent="1">
          <mxGeometry x="1230" y="150" width="145" height="120" as="geometry" />
        </mxCell>
        <mxCell id="fQY0wKTE_9jviepJ98bO-38" value="Mysql&lt;div&gt;Source&lt;br&gt;&lt;div&gt;&lt;br&gt;&lt;/div&gt;&lt;div&gt;&lt;br&gt;&lt;/div&gt;&lt;div&gt;192.168.103.213&lt;/div&gt;&lt;div&gt;&lt;br&gt;&lt;/div&gt;&lt;/div&gt;" style="rounded=0;whiteSpace=wrap;html=1;align=left;" vertex="1" parent="fQY0wKTE_9jviepJ98bO-37">
          <mxGeometry x="10" width="145" height="120" as="geometry" />
        </mxCell>
        <mxCell id="fQY0wKTE_9jviepJ98bO-39" value="" style="fontColor=#0066CC;verticalAlign=top;verticalLabelPosition=bottom;labelPosition=center;align=center;html=1;outlineConnect=0;fillColor=#CCCCCC;strokeColor=#6881B3;gradientColor=none;gradientDirection=north;strokeWidth=2;shape=mxgraph.networks.proxy_server;" vertex="1" parent="fQY0wKTE_9jviepJ98bO-37">
          <mxGeometry x="100" y="10" width="43" height="62.5" as="geometry" />
        </mxCell>
        <mxCell id="fQY0wKTE_9jviepJ98bO-42" value="" style="group" vertex="1" connectable="0" parent="1">
          <mxGeometry x="1770" y="150" width="150" height="74.99000000000001" as="geometry" />
        </mxCell>
        <mxCell id="fQY0wKTE_9jviepJ98bO-22" value="Admin&lt;div&gt;Ansible&lt;/div&gt;&lt;div&gt;&lt;div&gt;192.168.103.3&lt;/div&gt;&lt;/div&gt;" style="rounded=0;whiteSpace=wrap;html=1;align=left;" vertex="1" parent="fQY0wKTE_9jviepJ98bO-42">
          <mxGeometry width="150" height="74.99" as="geometry" />
        </mxCell>
        <mxCell id="fQY0wKTE_9jviepJ98bO-33" value="" style="shape=mxgraph.networks2.icon;aspect=fixed;fillColor=#EDEDED;strokeColor=#000000;gradientColor=#5B6163;network2IconShadow=1;network2bgFillColor=none;network2Icon=mxgraph.networks2.user_male;network2IconW=0.8918;network2IconH=1.0003;" vertex="1" parent="fQY0wKTE_9jviepJ98bO-42">
          <mxGeometry x="100" y="10" width="44.59" height="50.015" as="geometry" />
        </mxCell>
        <mxCell id="fQY0wKTE_9jviepJ98bO-51" value="" style="group" vertex="1" connectable="0" parent="1">
          <mxGeometry x="990" y="150" width="145" height="120" as="geometry" />
        </mxCell>
        <mxCell id="fQY0wKTE_9jviepJ98bO-52" value="Mysql&lt;br&gt;&lt;div&gt;Replica&lt;/div&gt;&lt;div&gt;&lt;br&gt;&lt;/div&gt;&lt;div&gt;&lt;br&gt;&lt;/div&gt;&lt;div&gt;192.168.103.214&lt;/div&gt;&lt;div&gt;&lt;br&gt;&lt;/div&gt;" style="rounded=0;whiteSpace=wrap;html=1;align=left;" vertex="1" parent="fQY0wKTE_9jviepJ98bO-51">
          <mxGeometry x="10" width="145" height="120" as="geometry" />
        </mxCell>
        <mxCell id="fQY0wKTE_9jviepJ98bO-53" value="" style="fontColor=#0066CC;verticalAlign=top;verticalLabelPosition=bottom;labelPosition=center;align=center;html=1;outlineConnect=0;fillColor=#CCCCCC;strokeColor=#6881B3;gradientColor=none;gradientDirection=north;strokeWidth=2;shape=mxgraph.networks.proxy_server;" vertex="1" parent="fQY0wKTE_9jviepJ98bO-51">
          <mxGeometry x="100" y="10" width="43" height="62.5" as="geometry" />
        </mxCell>
        <mxCell id="fQY0wKTE_9jviepJ98bO-54" value="" style="group" vertex="1" connectable="0" parent="1">
          <mxGeometry x="990" y="530" width="145" height="120" as="geometry" />
        </mxCell>
        <mxCell id="fQY0wKTE_9jviepJ98bO-55" value="ELK&lt;div&gt;Kibana&lt;div&gt;Logstash&lt;/div&gt;&lt;div&gt;&lt;br&gt;&lt;/div&gt;&lt;div&gt;192.168.103.216&lt;/div&gt;&lt;div&gt;&lt;br&gt;&lt;/div&gt;&lt;/div&gt;" style="rounded=0;whiteSpace=wrap;html=1;align=left;" vertex="1" parent="fQY0wKTE_9jviepJ98bO-54">
          <mxGeometry x="10" width="145" height="120" as="geometry" />
        </mxCell>
        <mxCell id="fQY0wKTE_9jviepJ98bO-56" value="" style="fontColor=#0066CC;verticalAlign=top;verticalLabelPosition=bottom;labelPosition=center;align=center;html=1;outlineConnect=0;fillColor=#CCCCCC;strokeColor=#6881B3;gradientColor=none;gradientDirection=north;strokeWidth=2;shape=mxgraph.networks.proxy_server;" vertex="1" parent="fQY0wKTE_9jviepJ98bO-54">
          <mxGeometry x="100" y="10" width="43" height="62.5" as="geometry" />
        </mxCell>
        <mxCell id="fQY0wKTE_9jviepJ98bO-57" value="" style="group" vertex="1" connectable="0" parent="1">
          <mxGeometry x="1240" y="530" width="145" height="120" as="geometry" />
        </mxCell>
        <mxCell id="fQY0wKTE_9jviepJ98bO-58" value="Zabbix&lt;br&gt;&lt;div&gt;Mysql&lt;/div&gt;&lt;div&gt;zab.sitepvm.ru&lt;/div&gt;&lt;div&gt;&lt;br&gt;&lt;/div&gt;&lt;div&gt;192.168.103.215&lt;/div&gt;&lt;div&gt;&lt;br&gt;&lt;/div&gt;" style="rounded=0;whiteSpace=wrap;html=1;align=left;" vertex="1" parent="fQY0wKTE_9jviepJ98bO-57">
          <mxGeometry x="10" width="145" height="120" as="geometry" />
        </mxCell>
        <mxCell id="fQY0wKTE_9jviepJ98bO-59" value="" style="fontColor=#0066CC;verticalAlign=top;verticalLabelPosition=bottom;labelPosition=center;align=center;html=1;outlineConnect=0;fillColor=#CCCCCC;strokeColor=#6881B3;gradientColor=none;gradientDirection=north;strokeWidth=2;shape=mxgraph.networks.proxy_server;" vertex="1" parent="fQY0wKTE_9jviepJ98bO-57">
          <mxGeometry x="100" y="10" width="43" height="62.5" as="geometry" />
        </mxCell>
        <mxCell id="fQY0wKTE_9jviepJ98bO-64" style="edgeStyle=orthogonalEdgeStyle;rounded=0;orthogonalLoop=1;jettySize=auto;html=1;exitX=0;exitY=0.5;exitDx=0;exitDy=0;strokeColor=#FF3333;" edge="1" parent="1" source="fQY0wKTE_9jviepJ98bO-22">
          <mxGeometry relative="1" as="geometry">
            <mxPoint x="1770" y="187" as="sourcePoint" />
            <mxPoint x="1340" y="530" as="targetPoint" />
            <Array as="points">
              <mxPoint x="1700" y="187" />
              <mxPoint x="1700" y="480" />
              <mxPoint x="1340" y="480" />
            </Array>
          </mxGeometry>
        </mxCell>
        <mxCell id="fQY0wKTE_9jviepJ98bO-152" value="ssh" style="edgeLabel;html=1;align=center;verticalAlign=middle;resizable=0;points=[];" vertex="1" connectable="0" parent="fQY0wKTE_9jviepJ98bO-64">
          <mxGeometry x="0.9504" y="-2" relative="1" as="geometry">
            <mxPoint as="offset" />
          </mxGeometry>
        </mxCell>
        <mxCell id="fQY0wKTE_9jviepJ98bO-67" style="edgeStyle=orthogonalEdgeStyle;rounded=0;orthogonalLoop=1;jettySize=auto;html=1;strokeColor=#FF3333;" edge="1" parent="1">
          <mxGeometry relative="1" as="geometry">
            <mxPoint x="1770" y="187" as="sourcePoint" />
            <mxPoint x="1080" y="530" as="targetPoint" />
            <Array as="points">
              <mxPoint x="1700" y="187" />
              <mxPoint x="1700" y="480" />
              <mxPoint x="1080" y="480" />
            </Array>
          </mxGeometry>
        </mxCell>
        <mxCell id="fQY0wKTE_9jviepJ98bO-68" value="ssh" style="edgeLabel;html=1;align=center;verticalAlign=middle;resizable=0;points=[];" vertex="1" connectable="0" parent="fQY0wKTE_9jviepJ98bO-67">
          <mxGeometry x="0.3287" relative="1" as="geometry">
            <mxPoint as="offset" />
          </mxGeometry>
        </mxCell>
        <mxCell id="fQY0wKTE_9jviepJ98bO-146" value="ssh" style="edgeLabel;html=1;align=center;verticalAlign=middle;resizable=0;points=[];rotation=0;" vertex="1" connectable="0" parent="fQY0wKTE_9jviepJ98bO-67">
          <mxGeometry x="0.9735" y="-1" relative="1" as="geometry">
            <mxPoint y="-6" as="offset" />
          </mxGeometry>
        </mxCell>
        <mxCell id="fQY0wKTE_9jviepJ98bO-150" value="ssh" style="edgeLabel;html=1;align=center;verticalAlign=middle;resizable=0;points=[];" vertex="1" connectable="0" parent="fQY0wKTE_9jviepJ98bO-67">
          <mxGeometry x="-0.9247" y="1" relative="1" as="geometry">
            <mxPoint x="19" y="2" as="offset" />
          </mxGeometry>
        </mxCell>
        <mxCell id="fQY0wKTE_9jviepJ98bO-71" value="" style="edgeStyle=orthogonalEdgeStyle;rounded=0;orthogonalLoop=1;jettySize=auto;html=1;entryX=1;entryY=0.5;entryDx=0;entryDy=0;" edge="1" parent="1" source="fQY0wKTE_9jviepJ98bO-24" target="fQY0wKTE_9jviepJ98bO-38">
          <mxGeometry relative="1" as="geometry" />
        </mxCell>
        <mxCell id="fQY0wKTE_9jviepJ98bO-72" style="edgeStyle=orthogonalEdgeStyle;rounded=0;orthogonalLoop=1;jettySize=auto;html=1;entryX=1;entryY=0.5;entryDx=0;entryDy=0;" edge="1" parent="1" source="fQY0wKTE_9jviepJ98bO-30" target="fQY0wKTE_9jviepJ98bO-38">
          <mxGeometry relative="1" as="geometry" />
        </mxCell>
        <mxCell id="fQY0wKTE_9jviepJ98bO-78" value="3306" style="edgeLabel;html=1;align=center;verticalAlign=middle;resizable=0;points=[];" vertex="1" connectable="0" parent="fQY0wKTE_9jviepJ98bO-72">
          <mxGeometry x="0.8692" relative="1" as="geometry">
            <mxPoint x="23" as="offset" />
          </mxGeometry>
        </mxCell>
        <mxCell id="fQY0wKTE_9jviepJ98bO-140" value="3306" style="edgeLabel;html=1;align=center;verticalAlign=middle;resizable=0;points=[];" vertex="1" connectable="0" parent="fQY0wKTE_9jviepJ98bO-72">
          <mxGeometry x="-0.9032" relative="1" as="geometry">
            <mxPoint as="offset" />
          </mxGeometry>
        </mxCell>
        <mxCell id="fQY0wKTE_9jviepJ98bO-76" value="" style="edgeStyle=orthogonalEdgeStyle;rounded=0;orthogonalLoop=1;jettySize=auto;html=1;exitX=1;exitY=0.5;exitDx=0;exitDy=0;" edge="1" parent="1" source="fQY0wKTE_9jviepJ98bO-52" target="fQY0wKTE_9jviepJ98bO-38">
          <mxGeometry relative="1" as="geometry" />
        </mxCell>
        <mxCell id="fQY0wKTE_9jviepJ98bO-79" value="3306" style="edgeLabel;html=1;align=center;verticalAlign=middle;resizable=0;points=[];" vertex="1" connectable="0" parent="fQY0wKTE_9jviepJ98bO-76">
          <mxGeometry x="-0.3123" y="-1" relative="1" as="geometry">
            <mxPoint x="12" y="-1" as="offset" />
          </mxGeometry>
        </mxCell>
        <mxCell id="fQY0wKTE_9jviepJ98bO-82" value="" style="group" vertex="1" connectable="0" parent="1">
          <mxGeometry x="1133" y="330" width="145" height="120" as="geometry" />
        </mxCell>
        <mxCell id="fQY0wKTE_9jviepJ98bO-83" value="FS server&lt;br&gt;&lt;div&gt;&lt;br&gt;&lt;/div&gt;&lt;div&gt;&lt;br&gt;&lt;/div&gt;&lt;div&gt;&lt;br&gt;&lt;/div&gt;&lt;div&gt;192.168.102.103&lt;/div&gt;&lt;div&gt;&lt;br&gt;&lt;/div&gt;" style="rounded=0;whiteSpace=wrap;html=1;align=left;" vertex="1" parent="fQY0wKTE_9jviepJ98bO-82">
          <mxGeometry width="145" height="120" as="geometry" />
        </mxCell>
        <mxCell id="fQY0wKTE_9jviepJ98bO-84" value="" style="fontColor=#0066CC;verticalAlign=top;verticalLabelPosition=bottom;labelPosition=center;align=center;html=1;outlineConnect=0;fillColor=#CCCCCC;strokeColor=#6881B3;gradientColor=none;gradientDirection=north;strokeWidth=2;shape=mxgraph.networks.proxy_server;" vertex="1" parent="fQY0wKTE_9jviepJ98bO-82">
          <mxGeometry x="100" y="10" width="43" height="62.5" as="geometry" />
        </mxCell>
        <mxCell id="fQY0wKTE_9jviepJ98bO-87" style="edgeStyle=orthogonalEdgeStyle;rounded=0;orthogonalLoop=1;jettySize=auto;html=1;entryX=0.532;entryY=-0.02;entryDx=0;entryDy=0;entryPerimeter=0;exitX=0;exitY=0.75;exitDx=0;exitDy=0;dashed=1;strokeColor=#B32A9C;" edge="1" parent="1" source="fQY0wKTE_9jviepJ98bO-38" target="fQY0wKTE_9jviepJ98bO-83">
          <mxGeometry relative="1" as="geometry" />
        </mxCell>
        <mxCell id="fQY0wKTE_9jviepJ98bO-98" value="smb" style="edgeLabel;html=1;align=center;verticalAlign=middle;resizable=0;points=[];" vertex="1" connectable="0" parent="fQY0wKTE_9jviepJ98bO-87">
          <mxGeometry x="-0.0224" y="-1" relative="1" as="geometry">
            <mxPoint as="offset" />
          </mxGeometry>
        </mxCell>
        <mxCell id="fQY0wKTE_9jviepJ98bO-88" style="edgeStyle=orthogonalEdgeStyle;rounded=0;orthogonalLoop=1;jettySize=auto;html=1;entryX=1;entryY=0.5;entryDx=0;entryDy=0;" edge="1" parent="1" source="fQY0wKTE_9jviepJ98bO-58" target="fQY0wKTE_9jviepJ98bO-83">
          <mxGeometry relative="1" as="geometry" />
        </mxCell>
        <mxCell id="fQY0wKTE_9jviepJ98bO-89" style="edgeStyle=orthogonalEdgeStyle;rounded=0;orthogonalLoop=1;jettySize=auto;html=1;entryX=0.25;entryY=0;entryDx=0;entryDy=0;exitX=1;exitY=0.75;exitDx=0;exitDy=0;dashed=1;strokeColor=#B32A9C;" edge="1" parent="1" source="fQY0wKTE_9jviepJ98bO-52" target="fQY0wKTE_9jviepJ98bO-83">
          <mxGeometry relative="1" as="geometry" />
        </mxCell>
        <mxCell id="fQY0wKTE_9jviepJ98bO-99" value="smb" style="edgeLabel;html=1;align=center;verticalAlign=middle;resizable=0;points=[];" vertex="1" connectable="0" parent="fQY0wKTE_9jviepJ98bO-89">
          <mxGeometry x="-0.1174" y="-2" relative="1" as="geometry">
            <mxPoint as="offset" />
          </mxGeometry>
        </mxCell>
        <mxCell id="fQY0wKTE_9jviepJ98bO-90" style="edgeStyle=orthogonalEdgeStyle;rounded=0;orthogonalLoop=1;jettySize=auto;html=1;entryX=0;entryY=0.75;entryDx=0;entryDy=0;exitX=0.25;exitY=0;exitDx=0;exitDy=0;dashed=1;strokeColor=#B32A9C;" edge="1" parent="1" source="fQY0wKTE_9jviepJ98bO-55" target="fQY0wKTE_9jviepJ98bO-83">
          <mxGeometry relative="1" as="geometry">
            <mxPoint x="1010" y="370" as="sourcePoint" />
            <mxPoint x="1044" y="460" as="targetPoint" />
          </mxGeometry>
        </mxCell>
        <mxCell id="fQY0wKTE_9jviepJ98bO-94" value="smb" style="edgeLabel;html=1;align=center;verticalAlign=middle;resizable=0;points=[];" vertex="1" connectable="0" parent="fQY0wKTE_9jviepJ98bO-90">
          <mxGeometry x="-0.6159" y="1" relative="1" as="geometry">
            <mxPoint as="offset" />
          </mxGeometry>
        </mxCell>
        <mxCell id="fQY0wKTE_9jviepJ98bO-143" value="smb" style="edgeLabel;html=1;align=center;verticalAlign=middle;resizable=0;points=[];" vertex="1" connectable="0" parent="fQY0wKTE_9jviepJ98bO-90">
          <mxGeometry x="0.5223" y="1" relative="1" as="geometry">
            <mxPoint x="16" as="offset" />
          </mxGeometry>
        </mxCell>
        <mxCell id="fQY0wKTE_9jviepJ98bO-91" style="edgeStyle=orthogonalEdgeStyle;rounded=0;orthogonalLoop=1;jettySize=auto;html=1;entryX=0.75;entryY=0;entryDx=0;entryDy=0;exitX=0.281;exitY=1.003;exitDx=0;exitDy=0;dashed=1;strokeColor=#B32A9C;exitPerimeter=0;fillColor=#d5e8d4;" edge="1" parent="1" source="fQY0wKTE_9jviepJ98bO-24" target="fQY0wKTE_9jviepJ98bO-83">
          <mxGeometry relative="1" as="geometry">
            <mxPoint x="1405" y="320" as="sourcePoint" />
            <mxPoint x="1375" y="408" as="targetPoint" />
            <Array as="points">
              <mxPoint x="1531" y="320" />
              <mxPoint x="1242" y="320" />
            </Array>
          </mxGeometry>
        </mxCell>
        <mxCell id="fQY0wKTE_9jviepJ98bO-97" value="smb" style="edgeLabel;html=1;align=center;verticalAlign=middle;resizable=0;points=[];" vertex="1" connectable="0" parent="fQY0wKTE_9jviepJ98bO-91">
          <mxGeometry x="-0.9013" y="-1" relative="1" as="geometry">
            <mxPoint y="22" as="offset" />
          </mxGeometry>
        </mxCell>
        <mxCell id="fQY0wKTE_9jviepJ98bO-92" style="edgeStyle=orthogonalEdgeStyle;rounded=0;orthogonalLoop=1;jettySize=auto;html=1;entryX=0.988;entryY=0.704;entryDx=0;entryDy=0;dashed=1;strokeColor=#B32A9C;fillColor=#d5e8d4;entryPerimeter=0;" edge="1" parent="1" target="fQY0wKTE_9jviepJ98bO-83">
          <mxGeometry relative="1" as="geometry">
            <mxPoint x="1500" y="530" as="sourcePoint" />
            <mxPoint x="1230.25" y="499.64" as="targetPoint" />
            <Array as="points">
              <mxPoint x="1500" y="529" />
              <mxPoint x="1500" y="470" />
              <mxPoint x="1370" y="470" />
              <mxPoint x="1370" y="415" />
            </Array>
          </mxGeometry>
        </mxCell>
        <mxCell id="fQY0wKTE_9jviepJ98bO-96" value="smb" style="edgeLabel;html=1;align=center;verticalAlign=middle;resizable=0;points=[];rotation=0;" vertex="1" connectable="0" parent="fQY0wKTE_9jviepJ98bO-92">
          <mxGeometry x="-0.8133" y="-1" relative="1" as="geometry">
            <mxPoint y="22" as="offset" />
          </mxGeometry>
        </mxCell>
        <mxCell id="fQY0wKTE_9jviepJ98bO-144" value="smb" style="edgeLabel;html=1;align=center;verticalAlign=middle;resizable=0;points=[];" vertex="1" connectable="0" parent="fQY0wKTE_9jviepJ98bO-92">
          <mxGeometry x="0.8612" y="1" relative="1" as="geometry">
            <mxPoint as="offset" />
          </mxGeometry>
        </mxCell>
        <mxCell id="fQY0wKTE_9jviepJ98bO-93" style="edgeStyle=orthogonalEdgeStyle;rounded=0;orthogonalLoop=1;jettySize=auto;html=1;entryX=0.75;entryY=1;entryDx=0;entryDy=0;exitX=0.25;exitY=0;exitDx=0;exitDy=0;dashed=1;strokeColor=#B32A9C;fillColor=#d5e8d4;" edge="1" parent="1" source="fQY0wKTE_9jviepJ98bO-58" target="fQY0wKTE_9jviepJ98bO-83">
          <mxGeometry relative="1" as="geometry">
            <mxPoint x="1325.74" y="539.52" as="sourcePoint" />
            <mxPoint x="1069.74" y="424.52" as="targetPoint" />
            <Array as="points">
              <mxPoint x="1286" y="470" />
              <mxPoint x="1242" y="470" />
            </Array>
          </mxGeometry>
        </mxCell>
        <mxCell id="fQY0wKTE_9jviepJ98bO-95" value="smb" style="edgeLabel;html=1;align=center;verticalAlign=middle;resizable=0;points=[];" vertex="1" connectable="0" parent="fQY0wKTE_9jviepJ98bO-93">
          <mxGeometry x="-0.6061" relative="1" as="geometry">
            <mxPoint y="14" as="offset" />
          </mxGeometry>
        </mxCell>
        <mxCell id="fQY0wKTE_9jviepJ98bO-145" value="smb" style="edgeLabel;html=1;align=center;verticalAlign=middle;resizable=0;points=[];" vertex="1" connectable="0" parent="fQY0wKTE_9jviepJ98bO-93">
          <mxGeometry x="0.6931" relative="1" as="geometry">
            <mxPoint as="offset" />
          </mxGeometry>
        </mxCell>
        <mxCell id="fQY0wKTE_9jviepJ98bO-100" style="edgeStyle=orthogonalEdgeStyle;rounded=0;orthogonalLoop=1;jettySize=auto;html=1;entryX=0;entryY=0.5;entryDx=0;entryDy=0;strokeColor=#666666;dashed=1;dashPattern=8 8;" edge="1" parent="1">
          <mxGeometry relative="1" as="geometry">
            <mxPoint x="1145" y="610" as="sourcePoint" />
            <mxPoint x="1250" y="610" as="targetPoint" />
          </mxGeometry>
        </mxCell>
        <mxCell id="fQY0wKTE_9jviepJ98bO-103" value="10050" style="edgeLabel;html=1;align=center;verticalAlign=middle;resizable=0;points=[];" vertex="1" connectable="0" parent="fQY0wKTE_9jviepJ98bO-100">
          <mxGeometry x="-0.2854" y="-1" relative="1" as="geometry">
            <mxPoint as="offset" />
          </mxGeometry>
        </mxCell>
        <mxCell id="fQY0wKTE_9jviepJ98bO-101" style="edgeStyle=orthogonalEdgeStyle;rounded=0;orthogonalLoop=1;jettySize=auto;html=1;dashed=1;dashPattern=8 8;" edge="1" parent="1" source="fQY0wKTE_9jviepJ98bO-30">
          <mxGeometry relative="1" as="geometry">
            <mxPoint x="1395" y="610" as="targetPoint" />
            <Array as="points">
              <mxPoint x="1395" y="610" />
            </Array>
          </mxGeometry>
        </mxCell>
        <mxCell id="fQY0wKTE_9jviepJ98bO-102" value="10050" style="edgeLabel;html=1;align=center;verticalAlign=middle;resizable=0;points=[];" vertex="1" connectable="0" parent="fQY0wKTE_9jviepJ98bO-101">
          <mxGeometry x="-0.262" relative="1" as="geometry">
            <mxPoint as="offset" />
          </mxGeometry>
        </mxCell>
        <mxCell id="fQY0wKTE_9jviepJ98bO-104" style="edgeStyle=orthogonalEdgeStyle;rounded=0;orthogonalLoop=1;jettySize=auto;html=1;dashed=1;dashPattern=8 8;exitX=-0.009;exitY=0.416;exitDx=0;exitDy=0;exitPerimeter=0;" edge="1" parent="1" source="fQY0wKTE_9jviepJ98bO-21">
          <mxGeometry relative="1" as="geometry">
            <mxPoint x="1445" y="380" as="sourcePoint" />
            <mxPoint x="1395" y="550" as="targetPoint" />
            <Array as="points">
              <mxPoint x="1460" y="380" />
              <mxPoint x="1460" y="550" />
              <mxPoint x="1395" y="550" />
            </Array>
          </mxGeometry>
        </mxCell>
        <mxCell id="fQY0wKTE_9jviepJ98bO-105" value="10050" style="edgeLabel;html=1;align=center;verticalAlign=middle;resizable=0;points=[];" vertex="1" connectable="0" parent="fQY0wKTE_9jviepJ98bO-104">
          <mxGeometry x="-0.262" relative="1" as="geometry">
            <mxPoint y="-69" as="offset" />
          </mxGeometry>
        </mxCell>
        <mxCell id="fQY0wKTE_9jviepJ98bO-139" value="10050" style="edgeLabel;html=1;align=center;verticalAlign=middle;resizable=0;points=[];" vertex="1" connectable="0" parent="fQY0wKTE_9jviepJ98bO-104">
          <mxGeometry x="0.865" relative="1" as="geometry">
            <mxPoint x="47" as="offset" />
          </mxGeometry>
        </mxCell>
        <mxCell id="fQY0wKTE_9jviepJ98bO-106" style="edgeStyle=orthogonalEdgeStyle;rounded=0;orthogonalLoop=1;jettySize=auto;html=1;dashed=1;dashPattern=8 8;exitX=-0.009;exitY=0.416;exitDx=0;exitDy=0;exitPerimeter=0;entryX=0.75;entryY=0;entryDx=0;entryDy=0;" edge="1" parent="1" target="fQY0wKTE_9jviepJ98bO-58">
          <mxGeometry relative="1" as="geometry">
            <mxPoint x="1490.3" y="240.1" as="sourcePoint" />
            <mxPoint x="1396.3" y="410.1" as="targetPoint" />
            <Array as="points">
              <mxPoint x="1410" y="240" />
              <mxPoint x="1410" y="360" />
              <mxPoint x="1359" y="360" />
            </Array>
          </mxGeometry>
        </mxCell>
        <mxCell id="fQY0wKTE_9jviepJ98bO-107" value="10050" style="edgeLabel;html=1;align=center;verticalAlign=middle;resizable=0;points=[];" vertex="1" connectable="0" parent="fQY0wKTE_9jviepJ98bO-106">
          <mxGeometry x="-0.262" relative="1" as="geometry">
            <mxPoint x="60" y="-75" as="offset" />
          </mxGeometry>
        </mxCell>
        <mxCell id="fQY0wKTE_9jviepJ98bO-110" style="edgeStyle=orthogonalEdgeStyle;rounded=0;orthogonalLoop=1;jettySize=auto;html=1;entryX=0;entryY=0.5;entryDx=0;entryDy=0;strokeColor=#666666;dashed=1;dashPattern=8 8;" edge="1" parent="1" target="fQY0wKTE_9jviepJ98bO-58">
          <mxGeometry relative="1" as="geometry">
            <mxPoint x="1060" y="270" as="sourcePoint" />
            <mxPoint x="1055" y="340" as="targetPoint" />
            <Array as="points">
              <mxPoint x="1060" y="470" />
              <mxPoint x="1200" y="470" />
              <mxPoint x="1200" y="590" />
            </Array>
          </mxGeometry>
        </mxCell>
        <mxCell id="fQY0wKTE_9jviepJ98bO-111" value="10050" style="edgeLabel;html=1;align=center;verticalAlign=middle;resizable=0;points=[];" vertex="1" connectable="0" parent="fQY0wKTE_9jviepJ98bO-110">
          <mxGeometry x="-0.2854" y="-1" relative="1" as="geometry">
            <mxPoint y="-172" as="offset" />
          </mxGeometry>
        </mxCell>
        <mxCell id="fQY0wKTE_9jviepJ98bO-138" value="10050" style="edgeLabel;html=1;align=center;verticalAlign=middle;resizable=0;points=[];" vertex="1" connectable="0" parent="fQY0wKTE_9jviepJ98bO-110">
          <mxGeometry x="0.8436" y="-1" relative="1" as="geometry">
            <mxPoint as="offset" />
          </mxGeometry>
        </mxCell>
        <mxCell id="fQY0wKTE_9jviepJ98bO-112" style="edgeStyle=orthogonalEdgeStyle;rounded=0;orthogonalLoop=1;jettySize=auto;html=1;entryX=0.75;entryY=0;entryDx=0;entryDy=0;strokeColor=#666666;dashed=1;dashPattern=8 8;" edge="1" parent="1" target="fQY0wKTE_9jviepJ98bO-58">
          <mxGeometry relative="1" as="geometry">
            <mxPoint x="1359" y="270" as="sourcePoint" />
            <mxPoint x="1520" y="590" as="targetPoint" />
            <Array as="points">
              <mxPoint x="1359" y="520" />
              <mxPoint x="1359" y="520" />
            </Array>
          </mxGeometry>
        </mxCell>
        <mxCell id="fQY0wKTE_9jviepJ98bO-113" value="10050" style="edgeLabel;html=1;align=center;verticalAlign=middle;resizable=0;points=[];" vertex="1" connectable="0" parent="fQY0wKTE_9jviepJ98bO-112">
          <mxGeometry x="-0.2854" y="-1" relative="1" as="geometry">
            <mxPoint as="offset" />
          </mxGeometry>
        </mxCell>
        <mxCell id="fQY0wKTE_9jviepJ98bO-114" style="edgeStyle=orthogonalEdgeStyle;rounded=0;orthogonalLoop=1;jettySize=auto;html=1;exitX=0.25;exitY=1;exitDx=0;exitDy=0;entryX=0;entryY=0;entryDx=0;entryDy=0;fillColor=#f8cecc;strokeColor=light-dark(#0000CC,#D7817E);dashed=1;" edge="1" parent="1" source="fQY0wKTE_9jviepJ98bO-52" target="fQY0wKTE_9jviepJ98bO-55">
          <mxGeometry relative="1" as="geometry">
            <Array as="points">
              <mxPoint x="1036" y="310" />
              <mxPoint x="1000" y="310" />
            </Array>
          </mxGeometry>
        </mxCell>
        <mxCell id="fQY0wKTE_9jviepJ98bO-117" style="edgeStyle=orthogonalEdgeStyle;rounded=0;orthogonalLoop=1;jettySize=auto;html=1;exitX=0.297;exitY=0.996;exitDx=0;exitDy=0;fillColor=#f8cecc;strokeColor=light-dark(#FF0000,#D7817E);dashed=1;exitPerimeter=0;" edge="1" parent="1" source="fQY0wKTE_9jviepJ98bO-38">
          <mxGeometry relative="1" as="geometry">
            <mxPoint x="926" y="270" as="sourcePoint" />
            <mxPoint x="1000" y="530" as="targetPoint" />
            <Array as="points">
              <mxPoint x="1283" y="310" />
              <mxPoint x="1000" y="310" />
              <mxPoint x="1000" y="530" />
            </Array>
          </mxGeometry>
        </mxCell>
        <mxCell id="fQY0wKTE_9jviepJ98bO-118" value="5044" style="edgeLabel;html=1;align=center;verticalAlign=middle;resizable=0;points=[];" vertex="1" connectable="0" parent="fQY0wKTE_9jviepJ98bO-117">
          <mxGeometry x="0.0556" relative="1" as="geometry">
            <mxPoint as="offset" />
          </mxGeometry>
        </mxCell>
        <mxCell id="fQY0wKTE_9jviepJ98bO-124" style="edgeStyle=orthogonalEdgeStyle;rounded=0;orthogonalLoop=1;jettySize=auto;html=1;exitX=0.297;exitY=0.996;exitDx=0;exitDy=0;fillColor=#f8cecc;strokeColor=light-dark(#2b00ff, #D7817E);dashed=1;exitPerimeter=0;" edge="1" parent="1" source="fQY0wKTE_9jviepJ98bO-38">
          <mxGeometry relative="1" as="geometry">
            <mxPoint x="1283" y="270" as="sourcePoint" />
            <mxPoint x="1000" y="530" as="targetPoint" />
            <Array as="points">
              <mxPoint x="1283" y="310" />
              <mxPoint x="1000" y="310" />
            </Array>
          </mxGeometry>
        </mxCell>
        <mxCell id="fQY0wKTE_9jviepJ98bO-125" value="5044" style="edgeLabel;html=1;align=center;verticalAlign=middle;resizable=0;points=[];" vertex="1" connectable="0" parent="fQY0wKTE_9jviepJ98bO-124">
          <mxGeometry x="0.0556" relative="1" as="geometry">
            <mxPoint as="offset" />
          </mxGeometry>
        </mxCell>
        <mxCell id="fQY0wKTE_9jviepJ98bO-126" style="edgeStyle=orthogonalEdgeStyle;rounded=0;orthogonalLoop=1;jettySize=auto;html=1;exitX=0.113;exitY=0.995;exitDx=0;exitDy=0;fillColor=#f8cecc;strokeColor=light-dark(#2b00ff, #D7817E);dashed=1;exitPerimeter=0;endArrow=none;startFill=0;" edge="1" parent="1" source="fQY0wKTE_9jviepJ98bO-24">
          <mxGeometry relative="1" as="geometry">
            <mxPoint x="1283" y="270" as="sourcePoint" />
            <mxPoint x="1050" y="310" as="targetPoint" />
            <Array as="points">
              <mxPoint x="1506" y="310" />
            </Array>
          </mxGeometry>
        </mxCell>
        <mxCell id="fQY0wKTE_9jviepJ98bO-127" value="5044" style="edgeLabel;html=1;align=center;verticalAlign=middle;resizable=0;points=[];" vertex="1" connectable="0" parent="fQY0wKTE_9jviepJ98bO-126">
          <mxGeometry x="0.0556" relative="1" as="geometry">
            <mxPoint x="-4" as="offset" />
          </mxGeometry>
        </mxCell>
        <mxCell id="fQY0wKTE_9jviepJ98bO-128" value="5044" style="edgeLabel;html=1;align=center;verticalAlign=middle;resizable=0;points=[];" vertex="1" connectable="0" parent="fQY0wKTE_9jviepJ98bO-126">
          <mxGeometry x="-0.9367" relative="1" as="geometry">
            <mxPoint y="-5" as="offset" />
          </mxGeometry>
        </mxCell>
        <mxCell id="fQY0wKTE_9jviepJ98bO-129" style="edgeStyle=orthogonalEdgeStyle;rounded=0;orthogonalLoop=1;jettySize=auto;html=1;exitX=0.25;exitY=1;exitDx=0;exitDy=0;fillColor=#f8cecc;strokeColor=light-dark(#2b00ff, #D7817E);dashed=1;entryX=0.819;entryY=0;entryDx=0;entryDy=0;entryPerimeter=0;" edge="1" parent="1" source="fQY0wKTE_9jviepJ98bO-21" target="fQY0wKTE_9jviepJ98bO-55">
          <mxGeometry relative="1" as="geometry">
            <mxPoint x="1533" y="470" as="sourcePoint" />
            <mxPoint x="1250" y="730" as="targetPoint" />
            <Array as="points">
              <mxPoint x="1526" y="500" />
              <mxPoint x="1119" y="500" />
            </Array>
          </mxGeometry>
        </mxCell>
        <mxCell id="fQY0wKTE_9jviepJ98bO-130" value="5044" style="edgeLabel;html=1;align=center;verticalAlign=middle;resizable=0;points=[];" vertex="1" connectable="0" parent="fQY0wKTE_9jviepJ98bO-129">
          <mxGeometry x="0.0556" relative="1" as="geometry">
            <mxPoint x="201" y="-40" as="offset" />
          </mxGeometry>
        </mxCell>
        <mxCell id="fQY0wKTE_9jviepJ98bO-131" style="edgeStyle=orthogonalEdgeStyle;rounded=0;orthogonalLoop=1;jettySize=auto;html=1;exitX=0.25;exitY=0;exitDx=0;exitDy=0;fillColor=#f8cecc;strokeColor=light-dark(#2b00ff, #D7817E);dashed=1;entryX=0.819;entryY=0;entryDx=0;entryDy=0;entryPerimeter=0;" edge="1" parent="1" source="fQY0wKTE_9jviepJ98bO-30" target="fQY0wKTE_9jviepJ98bO-55">
          <mxGeometry relative="1" as="geometry">
            <mxPoint x="1533" y="470" as="sourcePoint" />
            <mxPoint x="1250" y="730" as="targetPoint" />
            <Array as="points">
              <mxPoint x="1526" y="500" />
              <mxPoint x="1119" y="500" />
            </Array>
          </mxGeometry>
        </mxCell>
        <mxCell id="fQY0wKTE_9jviepJ98bO-132" value="5044" style="edgeLabel;html=1;align=center;verticalAlign=middle;resizable=0;points=[];" vertex="1" connectable="0" parent="fQY0wKTE_9jviepJ98bO-131">
          <mxGeometry x="0.0556" relative="1" as="geometry">
            <mxPoint x="220" y="10" as="offset" />
          </mxGeometry>
        </mxCell>
        <mxCell id="fQY0wKTE_9jviepJ98bO-136" value="5044" style="edgeLabel;html=1;align=center;verticalAlign=middle;resizable=0;points=[];" vertex="1" connectable="0" parent="fQY0wKTE_9jviepJ98bO-131">
          <mxGeometry x="0.9019" y="1" relative="1" as="geometry">
            <mxPoint y="3" as="offset" />
          </mxGeometry>
        </mxCell>
        <mxCell id="fQY0wKTE_9jviepJ98bO-134" style="edgeStyle=orthogonalEdgeStyle;rounded=0;orthogonalLoop=1;jettySize=auto;html=1;exitX=0;exitY=0.25;exitDx=0;exitDy=0;fillColor=#f8cecc;strokeColor=light-dark(#2b00ff, #D7817E);dashed=1;entryX=1;entryY=0.25;entryDx=0;entryDy=0;" edge="1" parent="1" source="fQY0wKTE_9jviepJ98bO-58" target="fQY0wKTE_9jviepJ98bO-55">
          <mxGeometry relative="1" as="geometry">
            <mxPoint x="1497.24" y="699.98" as="sourcePoint" />
            <mxPoint x="1090.24" y="699.98" as="targetPoint" />
            <Array as="points">
              <mxPoint x="1190" y="560" />
              <mxPoint x="1190" y="560" />
            </Array>
          </mxGeometry>
        </mxCell>
        <mxCell id="fQY0wKTE_9jviepJ98bO-137" value="5044" style="edgeLabel;html=1;align=center;verticalAlign=middle;resizable=0;points=[];" vertex="1" connectable="0" parent="fQY0wKTE_9jviepJ98bO-134">
          <mxGeometry x="0.2998" relative="1" as="geometry">
            <mxPoint as="offset" />
          </mxGeometry>
        </mxCell>
        <mxCell id="fQY0wKTE_9jviepJ98bO-151" style="edgeStyle=orthogonalEdgeStyle;rounded=0;orthogonalLoop=1;jettySize=auto;html=1;exitX=0;exitY=0.5;exitDx=0;exitDy=0;strokeColor=#FF3333;entryX=0.758;entryY=-0.003;entryDx=0;entryDy=0;entryPerimeter=0;" edge="1" parent="1" source="fQY0wKTE_9jviepJ98bO-22" target="fQY0wKTE_9jviepJ98bO-30">
          <mxGeometry relative="1" as="geometry">
            <mxPoint x="1770" y="187" as="sourcePoint" />
            <mxPoint x="1340" y="530" as="targetPoint" />
            <Array as="points">
              <mxPoint x="1700" y="187" />
              <mxPoint x="1700" y="480" />
              <mxPoint x="1600" y="480" />
              <mxPoint x="1600" y="520" />
              <mxPoint x="1600" y="520" />
            </Array>
          </mxGeometry>
        </mxCell>
        <mxCell id="fQY0wKTE_9jviepJ98bO-153" value="ssh" style="edgeLabel;html=1;align=center;verticalAlign=middle;resizable=0;points=[];" vertex="1" connectable="0" parent="fQY0wKTE_9jviepJ98bO-151">
          <mxGeometry x="0.9333" y="-1" relative="1" as="geometry">
            <mxPoint as="offset" />
          </mxGeometry>
        </mxCell>
        <mxCell id="fQY0wKTE_9jviepJ98bO-154" style="edgeStyle=orthogonalEdgeStyle;rounded=0;orthogonalLoop=1;jettySize=auto;html=1;exitX=0;exitY=0.5;exitDx=0;exitDy=0;strokeColor=#FF3333;entryX=1.004;entryY=0.223;entryDx=0;entryDy=0;entryPerimeter=0;" edge="1" parent="1" source="fQY0wKTE_9jviepJ98bO-22" target="fQY0wKTE_9jviepJ98bO-21">
          <mxGeometry relative="1" as="geometry">
            <mxPoint x="1770" y="187" as="sourcePoint" />
            <mxPoint x="1340" y="530" as="targetPoint" />
            <Array as="points">
              <mxPoint x="1700" y="188" />
              <mxPoint x="1700" y="357" />
              <mxPoint x="1670" y="357" />
            </Array>
          </mxGeometry>
        </mxCell>
        <mxCell id="fQY0wKTE_9jviepJ98bO-155" value="ssh" style="edgeLabel;html=1;align=center;verticalAlign=middle;resizable=0;points=[];" vertex="1" connectable="0" parent="fQY0wKTE_9jviepJ98bO-154">
          <mxGeometry x="0.9333" y="-1" relative="1" as="geometry">
            <mxPoint x="17" as="offset" />
          </mxGeometry>
        </mxCell>
        <mxCell id="fQY0wKTE_9jviepJ98bO-156" style="edgeStyle=orthogonalEdgeStyle;rounded=0;orthogonalLoop=1;jettySize=auto;html=1;exitX=0;exitY=0.5;exitDx=0;exitDy=0;strokeColor=#FF3333;entryX=0.554;entryY=0.994;entryDx=0;entryDy=0;entryPerimeter=0;" edge="1" parent="1" source="fQY0wKTE_9jviepJ98bO-22" target="fQY0wKTE_9jviepJ98bO-38">
          <mxGeometry relative="1" as="geometry">
            <mxPoint x="1770" y="187" as="sourcePoint" />
            <mxPoint x="1340" y="530" as="targetPoint" />
            <Array as="points">
              <mxPoint x="1700" y="187" />
              <mxPoint x="1700" y="300" />
              <mxPoint x="1320" y="300" />
            </Array>
          </mxGeometry>
        </mxCell>
        <mxCell id="fQY0wKTE_9jviepJ98bO-157" value="ssh" style="edgeLabel;html=1;align=center;verticalAlign=middle;resizable=0;points=[];" vertex="1" connectable="0" parent="fQY0wKTE_9jviepJ98bO-156">
          <mxGeometry x="0.9333" y="-1" relative="1" as="geometry">
            <mxPoint x="17" as="offset" />
          </mxGeometry>
        </mxCell>
        <mxCell id="fQY0wKTE_9jviepJ98bO-158" style="edgeStyle=orthogonalEdgeStyle;rounded=0;orthogonalLoop=1;jettySize=auto;html=1;exitX=0;exitY=0.5;exitDx=0;exitDy=0;strokeColor=#FF3333;entryX=0.997;entryY=0.168;entryDx=0;entryDy=0;entryPerimeter=0;" edge="1" parent="1" source="fQY0wKTE_9jviepJ98bO-22" target="fQY0wKTE_9jviepJ98bO-24">
          <mxGeometry relative="1" as="geometry">
            <mxPoint x="1770" y="187" as="sourcePoint" />
            <mxPoint x="1340" y="530" as="targetPoint" />
            <Array as="points">
              <mxPoint x="1703" y="187" />
              <mxPoint x="1703" y="170" />
              <mxPoint x="1650" y="170" />
            </Array>
          </mxGeometry>
        </mxCell>
        <mxCell id="fQY0wKTE_9jviepJ98bO-159" value="ssh" style="edgeLabel;html=1;align=center;verticalAlign=middle;resizable=0;points=[];" vertex="1" connectable="0" parent="fQY0wKTE_9jviepJ98bO-158">
          <mxGeometry x="0.9333" y="-1" relative="1" as="geometry">
            <mxPoint x="17" as="offset" />
          </mxGeometry>
        </mxCell>
        <mxCell id="fQY0wKTE_9jviepJ98bO-160" style="edgeStyle=orthogonalEdgeStyle;rounded=0;orthogonalLoop=1;jettySize=auto;html=1;exitX=0;exitY=0.5;exitDx=0;exitDy=0;strokeColor=#FF3333;entryX=0.621;entryY=0.994;entryDx=0;entryDy=0;entryPerimeter=0;" edge="1" parent="1" source="fQY0wKTE_9jviepJ98bO-22" target="fQY0wKTE_9jviepJ98bO-52">
          <mxGeometry relative="1" as="geometry">
            <mxPoint x="1770" y="187" as="sourcePoint" />
            <mxPoint x="1340" y="530" as="targetPoint" />
            <Array as="points">
              <mxPoint x="1700" y="187" />
              <mxPoint x="1700" y="300" />
              <mxPoint x="1090" y="300" />
            </Array>
          </mxGeometry>
        </mxCell>
        <mxCell id="fQY0wKTE_9jviepJ98bO-161" value="ssh" style="edgeLabel;html=1;align=center;verticalAlign=middle;resizable=0;points=[];" vertex="1" connectable="0" parent="fQY0wKTE_9jviepJ98bO-160">
          <mxGeometry x="0.9333" y="-1" relative="1" as="geometry">
            <mxPoint x="-1" as="offset" />
          </mxGeometry>
        </mxCell>
      </root>
    </mxGraphModel>
  </diagram>
</mxfile>
